<svg version="1.1" id="Layer_1" xmlns="http://www.w3.org/2000/svg" xmlns:xlink="http://www.w3.org/1999/xlink" x="0px" y="0px"
	 width="100%" viewBox="0 0 295 301" enable-background="new 0 0 295 301" xml:space="preserve">
<path fill="#000000" opacity="1.000000" stroke="none" 
	d="
M164.000000,302.000000 
	C109.333344,302.000000 55.166687,302.000000 1.000022,302.000000 
	C1.000015,201.666687 1.000015,101.333389 1.000007,1.000062 
	C99.333290,1.000041 197.666580,1.000041 295.999908,1.000021 
	C295.999939,101.333275 295.999939,201.666550 295.999969,301.999908 
	C252.166672,302.000000 208.333328,302.000000 164.000000,302.000000 
M35.019493,111.983063 
	C35.019493,111.983063 34.923508,111.959335 34.987453,112.798363 
	C35.679176,116.267128 35.755501,120.028801 37.229305,123.125336 
	C38.820736,126.469009 41.459076,129.466965 44.188541,132.033081 
	C45.134560,132.922470 47.720150,132.034760 49.557381,132.018723 
	C51.386471,132.002762 53.216221,132.062057 55.034870,131.966202 
	C55.034870,131.966202 54.912319,131.962021 54.982418,132.724945 
	C55.521397,133.858978 55.771477,135.346085 56.650127,136.064987 
	C60.169056,138.944168 59.387474,141.951248 57.331600,145.142105 
	C56.722599,146.087341 56.105408,147.027283 54.915161,147.742325 
	C49.244389,142.417328 44.641380,135.858948 36.904488,132.124542 
	C36.015961,144.610580 35.963478,156.751846 36.029644,168.892471 
	C36.107086,183.101318 39.858498,196.466446 45.156773,209.551834 
	C50.696846,223.234421 59.048340,234.928680 69.037926,245.633713 
	C76.478554,253.607224 84.860161,260.406982 94.491318,265.413239 
	C103.699234,270.199524 112.931366,275.463074 122.788445,278.336334 
	C133.687256,281.513245 145.273788,282.497040 156.629440,283.867249 
	C161.941483,284.508209 167.468079,284.247223 172.799957,283.596436 
	C177.922531,282.971283 182.878326,281.091492 187.979492,280.156219 
	C199.518066,278.040680 210.341553,273.828186 220.319412,267.948151 
	C228.219711,263.292450 235.326599,257.283447 242.748474,251.824661 
	C252.935699,244.331985 260.094604,234.356750 266.795715,223.164352 
	C267.236023,221.884659 267.676331,220.604965 268.229523,218.997208 
	C262.865417,218.997208 258.378967,218.875992 253.902924,219.039917 
	C250.928635,219.148849 247.969269,219.665283 244.068222,219.958832 
	C236.481689,220.120728 228.402283,218.073486 222.437973,225.193481 
	C220.692932,227.276672 218.804962,229.513962 216.492767,230.800323 
	C206.970825,236.097778 197.690582,242.293167 187.512711,245.833099 
	C174.178421,250.470840 160.304001,252.425995 145.727554,249.477646 
	C137.113083,247.735214 128.763672,245.652100 120.837769,242.215759 
	C107.110161,236.264038 95.565567,227.160965 86.809830,214.999451 
	C78.641548,203.653931 72.635094,191.312958 69.645187,177.370667 
	C68.000801,169.702682 70.142975,160.366241 62.275616,154.191864 
	C65.833611,153.151169 69.391609,152.110489 72.986130,150.997604 
	C72.986130,150.997604 72.922043,151.047028 73.130638,151.671692 
	C73.761627,151.813461 74.392609,151.955231 75.331352,152.702545 
	C75.905228,153.036148 76.589050,153.261963 77.037064,153.718948 
	C92.440689,169.431305 107.891525,185.098618 123.151794,200.949341 
	C126.472092,204.398117 128.665787,204.187256 131.976944,200.862534 
	C143.331436,189.461487 155.053329,178.427048 166.463699,167.080444 
	C169.098541,164.460342 170.664780,165.030807 172.965256,167.367630 
	C179.962250,174.475235 187.113144,181.433411 194.283203,188.367981 
	C199.800049,193.703629 205.436417,198.915710 211.200760,204.353607 
	C234.575302,180.962646 257.547211,158.005081 280.428070,134.957077 
	C281.272339,134.106644 281.872437,132.143265 281.496277,131.086578 
	C277.780426,120.648293 273.833923,110.292122 269.766846,99.250740 
	C267.183289,95.136734 264.599701,91.022720 262.006439,87.000458 
	C262.006439,87.000458 262.098328,87.008682 261.929871,86.461174 
	C261.611816,86.269081 261.293762,86.076981 260.768311,85.256546 
	C259.856506,84.290474 258.853729,83.394531 258.046509,82.347794 
	C246.116165,66.877487 231.000763,55.063816 213.659210,46.632488 
	C196.435135,38.258278 178.006958,33.472919 158.517868,33.977150 
	C142.679962,34.386917 127.187584,36.522564 112.701073,43.243313 
	C105.562218,46.555244 98.780296,50.636551 91.081039,54.185440 
	C85.413391,53.895321 80.131599,52.982925 74.022278,54.349445 
	C65.437004,56.269779 56.134773,59.435158 46.815338,54.668243 
	C43.631462,53.039677 38.953247,53.896446 36.250916,58.292088 
	C36.250916,58.292088 36.101578,58.611820 35.546059,58.981255 
	C35.082878,60.645344 34.619694,62.309429 34.014969,64.461555 
	C34.058121,64.625351 34.101273,64.789139 34.009354,65.887650 
	C34.005989,79.795311 33.972260,93.703117 34.043327,107.610397 
	C34.050949,109.102081 34.668774,110.590630 35.019493,111.983063 
z"/>
<path fill="#242122" opacity="1.000000" stroke="none" 
	d="
M269.952759,99.912689 
	C273.833923,110.292122 277.780426,120.648293 281.496277,131.086578 
	C281.872437,132.143265 281.272339,134.106644 280.428070,134.957077 
	C257.547211,158.005081 234.575302,180.962646 211.200760,204.353607 
	C205.436417,198.915710 199.800049,193.703629 194.283203,188.367981 
	C187.113144,181.433411 179.962250,174.475235 172.965256,167.367630 
	C170.664780,165.030807 169.098541,164.460342 166.463699,167.080444 
	C155.053329,178.427048 143.331436,189.461487 131.976944,200.862534 
	C128.665787,204.187256 126.472092,204.398117 123.151794,200.949341 
	C107.891525,185.098618 92.440689,169.431305 77.037064,153.718948 
	C76.589050,153.261963 75.905228,153.036148 75.108841,151.975204 
	C74.231560,151.180923 73.576805,151.113983 72.922043,151.047028 
	C72.922043,151.047028 72.986130,150.997604 73.310623,150.794678 
	C67.394188,144.381836 61.153252,138.171936 54.912315,131.962021 
	C54.912319,131.962021 55.034870,131.966202 55.024128,131.678284 
	C48.316761,124.913353 41.620136,118.436340 34.923508,111.959335 
	C34.923508,111.959335 35.019493,111.983063 35.069603,111.560669 
	C35.078629,97.079277 35.016830,83.020241 35.040478,68.961357 
	C35.042152,67.965218 35.672493,66.970131 36.212959,66.237671 
	C66.810051,96.840599 97.204681,127.180420 128.005310,157.925491 
	C138.739975,147.321869 149.485260,136.707764 160.540665,125.983826 
	C163.588806,123.272438 166.326813,120.670883 169.262192,117.881798 
	C178.875046,127.170364 188.218567,136.253815 197.650894,145.244080 
	C198.850464,146.387421 200.514343,147.043640 202.124298,148.222626 
	C204.315659,150.874023 206.175827,153.417114 208.467621,155.480896 
	C209.276581,156.209366 211.745163,156.392593 212.414276,155.746307 
	C214.863754,153.380234 216.874542,150.559982 219.398697,147.968857 
	C226.838242,141.037796 233.929626,134.048660 241.335754,126.939369 
	C249.756393,118.745300 257.837952,110.646622 265.996552,102.626305 
	C267.119385,101.522491 268.624573,100.807625 269.952759,99.912689 
z"/>
<path fill="#252122" opacity="1.000000" stroke="none" 
	d="
M61.926189,154.842377 
	C70.142975,160.366241 68.000801,169.702682 69.645187,177.370667 
	C72.635094,191.312958 78.641548,203.653931 86.809830,214.999451 
	C95.565567,227.160965 107.110161,236.264038 120.837769,242.215759 
	C128.763672,245.652100 137.113083,247.735214 145.727554,249.477646 
	C160.304001,252.425995 174.178421,250.470840 187.512711,245.833099 
	C197.690582,242.293167 206.970825,236.097778 216.492767,230.800323 
	C218.804962,229.513962 220.692932,227.276672 222.437973,225.193481 
	C228.402283,218.073486 236.481689,220.120728 245.002762,220.017365 
	C252.901840,220.075897 259.866364,220.075897 267.140198,220.075897 
	C266.589935,221.567657 266.266144,222.445465 265.942352,223.323288 
	C260.094604,234.356750 252.935699,244.331985 242.748474,251.824661 
	C235.326599,257.283447 228.219711,263.292450 220.319412,267.948151 
	C210.341553,273.828186 199.518066,278.040680 187.979492,280.156219 
	C182.878326,281.091492 177.922531,282.971283 172.799957,283.596436 
	C167.468079,284.247223 161.941483,284.508209 156.629440,283.867249 
	C145.273788,282.497040 133.687256,281.513245 122.788445,278.336334 
	C112.931366,275.463074 103.699234,270.199524 94.491318,265.413239 
	C84.860161,260.406982 76.478554,253.607224 69.037926,245.633713 
	C59.048340,234.928680 50.696846,223.234421 45.156773,209.551834 
	C39.858498,196.466446 36.107086,183.101318 36.029644,168.892471 
	C35.963478,156.751846 36.015961,144.610580 36.904488,132.124542 
	C44.641380,135.858948 49.244389,142.417328 55.165390,148.227097 
	C57.585808,150.755371 59.756001,152.798874 61.926189,154.842377 
z"/>
<path fill="#242122" opacity="1.000000" stroke="none" 
	d="
M91.836861,54.369713 
	C98.780296,50.636551 105.562218,46.555244 112.701073,43.243313 
	C127.187584,36.522564 142.679962,34.386917 158.517868,33.977150 
	C178.006958,33.472919 196.435135,38.258278 213.659210,46.632488 
	C231.000763,55.063816 246.116165,66.877487 258.046509,82.347794 
	C258.853729,83.394531 259.856506,84.290474 260.867065,85.944977 
	C261.343323,86.758499 261.720825,86.883591 262.098328,87.008682 
	C262.098328,87.008682 262.006439,87.000458 261.776733,87.268471 
	C260.834808,89.006233 260.428925,90.765190 259.359619,91.897903 
	C253.285461,98.332390 247.052780,104.617218 240.558167,111.074036 
	C239.405212,111.437614 238.568100,111.680107 237.403946,111.817215 
	C235.815186,109.441704 234.877197,106.900490 233.239685,104.945053 
	C221.868042,91.365623 209.022507,80.101448 191.900970,73.620880 
	C173.863174,66.793495 156.115494,64.963783 137.501282,70.082985 
	C126.515366,73.104294 116.230316,77.552002 107.050812,84.179375 
	C101.335373,88.305794 96.297226,93.370331 90.703598,98.041092 
	C90.289444,98.347191 90.126816,98.626015 89.639557,99.080994 
	C88.400414,99.318382 87.076958,99.804901 86.632385,99.377426 
	C79.262543,92.290825 72.003021,85.089493 64.801865,77.995613 
	C66.076637,76.298943 66.961647,75.121033 68.153816,73.802490 
	C76.252937,67.231155 84.044899,60.800434 91.836861,54.369713 
z"/>
<path fill="#F2F2F2" opacity="1.000000" stroke="none" 
	d="
M67.846657,73.943115 
	C66.961647,75.121033 66.076637,76.298943 64.801865,77.995613 
	C72.003021,85.089493 79.262543,92.290825 86.632385,99.377426 
	C87.076958,99.804901 88.400414,99.318382 89.665802,99.471931 
	C93.881523,102.085152 97.757607,106.471870 101.608734,106.450066 
	C108.675858,106.410057 116.822830,112.436966 123.060234,104.187859 
	C123.182831,104.025719 123.696175,104.140877 124.025841,104.156174 
	C130.452713,104.454361 137.008835,104.078003 143.265564,105.271103 
	C148.371002,106.244667 153.118591,109.094795 158.577438,111.340172 
	C150.108200,117.714966 152.968185,123.623474 160.230530,126.093643 
	C149.485260,136.707764 138.739975,147.321869 128.005310,157.925491 
	C97.204681,127.180420 66.810051,96.840599 36.091614,65.975441 
	C35.226685,65.284378 34.685555,65.118652 34.144424,64.952927 
	C34.101273,64.789139 34.058121,64.625351 34.386749,64.037659 
	C35.206211,61.946445 35.653896,60.279133 36.101578,58.611820 
	C36.101578,58.611820 36.250916,58.292088 36.792076,58.437912 
	C38.446369,58.474133 39.572464,58.437584 40.670479,58.242756 
	C46.629116,57.185482 57.102573,61.704639 60.436829,66.447289 
	C61.130959,67.434624 63.019974,67.739250 64.426262,68.030670 
	C66.401062,68.439911 68.959969,68.082695 66.800606,71.433334 
	C66.521988,71.865654 67.467949,73.087173 67.846657,73.943115 
M127.418335,118.439819 
	C126.622490,117.648598 125.826653,116.857376 125.030807,116.066154 
	C124.680748,116.555695 124.330688,117.045227 123.980621,117.534767 
	C124.945496,117.966454 125.910370,118.398140 127.418335,118.439819 
z"/>
<path fill="#FCFCFC" opacity="1.000000" stroke="none" 
	d="
M68.153816,73.802490 
	C67.467949,73.087173 66.521988,71.865654 66.800606,71.433334 
	C68.959969,68.082695 66.401062,68.439911 64.426262,68.030670 
	C63.019974,67.739250 61.130959,67.434624 60.436829,66.447289 
	C57.102573,61.704639 46.629116,57.185482 40.670479,58.242756 
	C39.572464,58.437584 38.446369,58.474133 36.947006,58.353477 
	C38.953247,53.896446 43.631462,53.039677 46.815338,54.668243 
	C56.134773,59.435158 65.437004,56.269779 74.022278,54.349445 
	C80.131599,52.982925 85.413391,53.895321 91.458954,54.277580 
	C84.044899,60.800434 76.252937,67.231155 68.153816,73.802490 
z"/>
<path fill="#F4F3F3" opacity="1.000000" stroke="none" 
	d="
M240.874008,110.952957 
	C247.052780,104.617218 253.285461,98.332390 259.359619,91.897903 
	C260.428925,90.765190 260.834808,89.006233 261.781616,87.222595 
	C264.599701,91.022720 267.183289,95.136734 269.859802,99.581711 
	C268.624573,100.807625 267.119385,101.522491 265.996552,102.626305 
	C257.837952,110.646622 249.756393,118.745300 241.323013,126.521370 
	C241.602158,123.518898 242.541138,120.835587 242.716400,118.103287 
	C242.873291,115.657356 244.682800,112.480865 240.874008,110.952957 
z"/>
<path fill="#F5F5F5" opacity="1.000000" stroke="none" 
	d="
M62.100903,154.517120 
	C59.756001,152.798874 57.585808,150.755371 55.453793,148.340759 
	C56.105408,147.027283 56.722599,146.087341 57.331600,145.142105 
	C59.387474,141.951248 60.169056,138.944168 56.650127,136.064987 
	C55.771477,135.346085 55.521397,133.858978 54.947365,132.343475 
	C61.153252,138.171936 67.394188,144.381836 73.292366,150.830765 
	C69.391609,152.110489 65.833611,153.151169 62.100903,154.517120 
z"/>
<path fill="#FAFAFA" opacity="1.000000" stroke="none" 
	d="
M34.955482,112.378845 
	C41.620136,118.436340 48.316761,124.913353 55.029533,131.739349 
	C53.216221,132.062057 51.386471,132.002762 49.557381,132.018723 
	C47.720150,132.034760 45.134560,132.922470 44.188541,132.033081 
	C41.459076,129.466965 38.820736,126.469009 37.229305,123.125336 
	C35.755501,120.028801 35.679176,116.267128 34.955482,112.378845 
z"/>
<path fill="#B9B8B9" opacity="1.000000" stroke="none" 
	d="
M34.076889,65.420288 
	C34.685555,65.118652 35.226685,65.284378 35.889160,65.712326 
	C35.672493,66.970131 35.042152,67.965218 35.040478,68.961357 
	C35.016830,83.020241 35.078629,97.079277 35.061623,111.609451 
	C34.668774,110.590630 34.050949,109.102081 34.043327,107.610397 
	C33.972260,93.703117 34.005989,79.795311 34.076889,65.420288 
z"/>
<path fill="#F5F5F5" opacity="1.000000" stroke="none" 
	d="
M266.369019,223.243820 
	C266.266144,222.445465 266.589935,221.567657 267.140198,220.075897 
	C259.866364,220.075897 252.901840,220.075897 245.470261,220.037598 
	C247.969269,219.665283 250.928635,219.148849 253.902924,219.039917 
	C258.378967,218.875992 262.865417,218.997208 268.229523,218.997208 
	C267.676331,220.604965 267.236023,221.884659 266.369019,223.243820 
z"/>
<path fill="#FCFCFC" opacity="1.000000" stroke="none" 
	d="
M35.823818,58.796539 
	C35.653896,60.279133 35.206211,61.946445 34.457520,63.793640 
	C34.619694,62.309429 35.082878,60.645344 35.823818,58.796539 
z"/>
<path fill="#F5F5F5" opacity="1.000000" stroke="none" 
	d="
M73.026337,151.359375 
	C73.576805,151.113983 74.231560,151.180923 74.954956,151.672424 
	C74.392609,151.955231 73.761627,151.813461 73.026337,151.359375 
z"/>
<path fill="#F4F3F3" opacity="1.000000" stroke="none" 
	d="
M262.014099,86.734932 
	C261.720825,86.883591 261.343323,86.758499 260.970764,86.259148 
	C261.293762,86.076981 261.611816,86.269081 262.014099,86.734932 
z"/>
<path fill="#FEFEFE" opacity="1.000000" stroke="none" 
	d="
M240.558167,111.074036 
	C244.682800,112.480865 242.873291,115.657356 242.716400,118.103287 
	C242.541138,120.835587 241.602158,123.518898 241.008270,126.641533 
	C233.929626,134.048660 226.838242,141.037796 219.495087,147.621201 
	C218.762100,144.787094 218.280884,142.358704 217.799667,139.930328 
	C217.329376,139.677780 216.859085,139.425217 216.388794,139.172668 
	C216.044556,139.972733 215.700333,140.772797 215.356079,141.572845 
	C213.821991,138.624725 213.035538,140.285477 211.346542,141.755371 
	C208.548218,144.190689 205.123764,145.906570 201.963104,147.925537 
	C200.514343,147.043640 198.850464,146.387421 197.650894,145.244080 
	C188.218567,136.253815 178.875046,127.170364 169.262192,117.881798 
	C166.326813,120.670883 163.588806,123.272438 160.540665,125.983818 
	C152.968185,123.623474 150.108200,117.714966 158.577438,111.340172 
	C153.118591,109.094795 148.371002,106.244667 143.265564,105.271103 
	C137.008835,104.078003 130.452713,104.454361 124.025841,104.156174 
	C123.696175,104.140877 123.182831,104.025719 123.060234,104.187859 
	C116.822830,112.436966 108.675858,106.410057 101.608734,106.450066 
	C97.757607,106.471870 93.881523,102.085152 89.990440,99.295784 
	C90.126816,98.626015 90.289444,98.347191 90.833496,98.410118 
	C100.073692,100.289001 108.051514,99.114639 114.032120,91.506439 
	C114.591873,90.794350 115.639824,90.475121 116.439484,89.941109 
	C123.907761,84.953819 132.330017,85.983170 140.586670,86.267532 
	C141.492493,86.298721 142.290619,87.898605 143.234879,88.650032 
	C146.761520,91.456429 150.039825,94.747162 153.950470,96.856583 
	C159.235382,99.707291 165.118515,101.426224 170.549225,104.037796 
	C173.871918,105.635651 176.686996,108.271828 179.979218,109.954071 
	C185.783188,112.919785 192.010315,115.122131 197.584274,118.443031 
	C199.998947,119.881660 201.351151,123.230743 202.961380,125.850098 
	C204.141205,127.769310 204.590851,131.279404 206.011658,131.658157 
	C208.554688,132.336075 211.821152,133.196777 214.161057,129.609146 
	C216.230118,126.436813 219.237106,123.720192 222.284317,121.398781 
	C224.198578,119.940475 227.247177,118.428551 229.272018,118.947906 
	C235.296280,120.493095 237.177826,119.927773 239.942963,113.621490 
	C239.207092,113.053322 238.469040,112.487953 237.731003,111.922592 
	C238.568100,111.680107 239.405212,111.437614 240.558167,111.074036 
z"/>
<path fill="#000000" opacity="1.000000" stroke="none" 
	d="
M202.124298,148.222626 
	C205.123764,145.906570 208.548218,144.190689 211.346542,141.755371 
	C213.035538,140.285477 213.821991,138.624725 215.356079,141.572845 
	C215.700333,140.772797 216.044556,139.972733 216.388794,139.172668 
	C216.859085,139.425217 217.329376,139.677780 217.799667,139.930328 
	C218.280884,142.358704 218.762100,144.787094 219.146927,147.563126 
	C216.874542,150.559982 214.863754,153.380234 212.414276,155.746307 
	C211.745163,156.392593 209.276581,156.209366 208.467621,155.480896 
	C206.175827,153.417114 204.315659,150.874023 202.124298,148.222626 
z"/>
<path fill="#000000" opacity="1.000000" stroke="none" 
	d="
M237.403946,111.817215 
	C238.469040,112.487953 239.207092,113.053322 239.942963,113.621490 
	C237.177826,119.927773 235.296280,120.493095 229.272018,118.947906 
	C227.247177,118.428551 224.198578,119.940475 222.284317,121.398781 
	C219.237106,123.720192 216.230118,126.436813 214.161057,129.609146 
	C211.821152,133.196777 208.554688,132.336075 206.011658,131.658157 
	C204.590851,131.279404 204.141205,127.769310 202.961380,125.850098 
	C201.351151,123.230743 199.998947,119.881660 197.584274,118.443031 
	C192.010315,115.122131 185.783188,112.919785 179.979218,109.954071 
	C176.686996,108.271828 173.871918,105.635651 170.549225,104.037796 
	C165.118515,101.426224 159.235382,99.707291 153.950470,96.856583 
	C150.039825,94.747162 146.761520,91.456429 143.234879,88.650032 
	C142.290619,87.898605 141.492493,86.298721 140.586670,86.267532 
	C132.330017,85.983170 123.907761,84.953819 116.439484,89.941109 
	C115.639824,90.475121 114.591873,90.794350 114.032120,91.506439 
	C108.051514,99.114639 100.073692,100.289001 91.085014,98.382858 
	C96.297226,93.370331 101.335373,88.305794 107.050812,84.179375 
	C116.230316,77.552002 126.515366,73.104294 137.501282,70.082985 
	C156.115494,64.963783 173.863174,66.793495 191.900970,73.620880 
	C209.022507,80.101448 221.868042,91.365623 233.239685,104.945053 
	C234.877197,106.900490 235.815186,109.441704 237.403946,111.817215 
z"/>
<path fill="#F2F2F2" opacity="1.000000" stroke="none" 
	d="
M127.146790,118.634827 
	C125.910370,118.398140 124.945496,117.966454 123.980621,117.534767 
	C124.330688,117.045227 124.680748,116.555695 125.030807,116.066154 
	C125.826653,116.857376 126.622490,117.648598 127.146790,118.634827 
z"/>
</svg>